<mxfile host="Electron" modified="2024-02-10T06:47:44.316Z" agent="Mozilla/5.0 (Windows NT 10.0; Win64; x64) AppleWebKit/537.36 (KHTML, like Gecko) draw.io/23.0.2 Chrome/120.0.6099.109 Electron/28.1.0 Safari/537.36" etag="xn6JyP4a_caosdkhKTKA" version="23.0.2" type="device">
  <diagram name="Page-1" id="rjR1ojSPm2X_Gm1_zSHM">
    <mxGraphModel dx="2634" dy="854" grid="1" gridSize="10" guides="1" tooltips="1" connect="1" arrows="1" fold="1" page="1" pageScale="1" pageWidth="1200" pageHeight="1920" math="0" shadow="0">
      <root>
        <mxCell id="0" />
        <mxCell id="1" parent="0" />
        <mxCell id="Mo43KSsvAckhel4JkecI-7" style="edgeStyle=orthogonalEdgeStyle;rounded=0;orthogonalLoop=1;jettySize=auto;html=1;exitX=0.5;exitY=1;exitDx=0;exitDy=0;entryX=0.5;entryY=0;entryDx=0;entryDy=0;" edge="1" parent="1" source="Mo43KSsvAckhel4JkecI-1" target="Mo43KSsvAckhel4JkecI-3">
          <mxGeometry relative="1" as="geometry" />
        </mxCell>
        <mxCell id="Mo43KSsvAckhel4JkecI-1" value="" style="ellipse;fillColor=strokeColor;html=1;" vertex="1" parent="1">
          <mxGeometry x="580" y="240" width="30" height="30" as="geometry" />
        </mxCell>
        <mxCell id="Mo43KSsvAckhel4JkecI-15" style="edgeStyle=orthogonalEdgeStyle;rounded=0;orthogonalLoop=1;jettySize=auto;html=1;exitX=0.25;exitY=1;exitDx=0;exitDy=0;entryX=0.5;entryY=0;entryDx=0;entryDy=0;" edge="1" parent="1" source="Mo43KSsvAckhel4JkecI-3" target="Mo43KSsvAckhel4JkecI-9">
          <mxGeometry relative="1" as="geometry" />
        </mxCell>
        <mxCell id="Mo43KSsvAckhel4JkecI-16" style="edgeStyle=orthogonalEdgeStyle;rounded=0;orthogonalLoop=1;jettySize=auto;html=1;exitX=0.75;exitY=1;exitDx=0;exitDy=0;entryX=0.5;entryY=0;entryDx=0;entryDy=0;" edge="1" parent="1" source="Mo43KSsvAckhel4JkecI-3" target="Mo43KSsvAckhel4JkecI-10">
          <mxGeometry relative="1" as="geometry" />
        </mxCell>
        <mxCell id="Mo43KSsvAckhel4JkecI-3" value="" style="rounded=0;whiteSpace=wrap;html=1;" vertex="1" parent="1">
          <mxGeometry x="440" y="310" width="310" height="200" as="geometry" />
        </mxCell>
        <mxCell id="Mo43KSsvAckhel4JkecI-4" value="Start page" style="text;html=1;strokeColor=none;fillColor=none;align=center;verticalAlign=middle;whiteSpace=wrap;rounded=0;" vertex="1" parent="1">
          <mxGeometry x="570" y="520" width="60" height="30" as="geometry" />
        </mxCell>
        <mxCell id="Mo43KSsvAckhel4JkecI-5" value="Log in" style="rounded=1;whiteSpace=wrap;html=1;" vertex="1" parent="1">
          <mxGeometry x="460" y="430" width="120" height="60" as="geometry" />
        </mxCell>
        <mxCell id="Mo43KSsvAckhel4JkecI-6" value="SIgn up" style="rounded=1;whiteSpace=wrap;html=1;" vertex="1" parent="1">
          <mxGeometry x="610" y="430" width="120" height="60" as="geometry" />
        </mxCell>
        <mxCell id="Mo43KSsvAckhel4JkecI-13" value="" style="group" vertex="1" connectable="0" parent="1">
          <mxGeometry x="150" y="580" width="310" height="270" as="geometry" />
        </mxCell>
        <mxCell id="Mo43KSsvAckhel4JkecI-9" value="" style="rounded=0;whiteSpace=wrap;html=1;" vertex="1" parent="Mo43KSsvAckhel4JkecI-13">
          <mxGeometry width="310" height="200" as="geometry" />
        </mxCell>
        <mxCell id="Mo43KSsvAckhel4JkecI-12" value="Log in" style="text;html=1;strokeColor=none;fillColor=none;align=center;verticalAlign=middle;whiteSpace=wrap;rounded=0;" vertex="1" parent="Mo43KSsvAckhel4JkecI-13">
          <mxGeometry x="125" y="210" width="60" height="30" as="geometry" />
        </mxCell>
        <mxCell id="Mo43KSsvAckhel4JkecI-17" value="email" style="rounded=0;whiteSpace=wrap;html=1;" vertex="1" parent="Mo43KSsvAckhel4JkecI-13">
          <mxGeometry x="20" y="20" width="270" height="40" as="geometry" />
        </mxCell>
        <mxCell id="Mo43KSsvAckhel4JkecI-18" value="password" style="rounded=0;whiteSpace=wrap;html=1;" vertex="1" parent="Mo43KSsvAckhel4JkecI-13">
          <mxGeometry x="20" y="70" width="270" height="40" as="geometry" />
        </mxCell>
        <mxCell id="Mo43KSsvAckhel4JkecI-19" value="Log in" style="rounded=1;whiteSpace=wrap;html=1;" vertex="1" parent="Mo43KSsvAckhel4JkecI-13">
          <mxGeometry x="90" y="120" width="120" height="40" as="geometry" />
        </mxCell>
        <mxCell id="Mo43KSsvAckhel4JkecI-20" value="Reset password" style="text;html=1;strokeColor=none;fillColor=none;align=center;verticalAlign=middle;whiteSpace=wrap;rounded=0;" vertex="1" parent="Mo43KSsvAckhel4JkecI-13">
          <mxGeometry x="230" y="160" width="60" height="30" as="geometry" />
        </mxCell>
        <mxCell id="Mo43KSsvAckhel4JkecI-81" value="&quot;Reset password&quot;" style="text;html=1;strokeColor=none;fillColor=none;align=center;verticalAlign=middle;whiteSpace=wrap;rounded=0;" vertex="1" parent="Mo43KSsvAckhel4JkecI-13">
          <mxGeometry x="10" y="230" width="60" height="30" as="geometry" />
        </mxCell>
        <mxCell id="Mo43KSsvAckhel4JkecI-82" value="&quot;Cancel&quot;" style="text;html=1;strokeColor=none;fillColor=none;align=center;verticalAlign=middle;whiteSpace=wrap;rounded=0;" vertex="1" parent="Mo43KSsvAckhel4JkecI-13">
          <mxGeometry x="170" y="240" width="60" height="30" as="geometry" />
        </mxCell>
        <mxCell id="Mo43KSsvAckhel4JkecI-14" value="" style="group" vertex="1" connectable="0" parent="1">
          <mxGeometry x="790" y="580" width="310" height="240" as="geometry" />
        </mxCell>
        <mxCell id="Mo43KSsvAckhel4JkecI-10" value="" style="rounded=0;whiteSpace=wrap;html=1;" vertex="1" parent="Mo43KSsvAckhel4JkecI-14">
          <mxGeometry width="310" height="200" as="geometry" />
        </mxCell>
        <mxCell id="Mo43KSsvAckhel4JkecI-11" value="Sign up" style="text;html=1;strokeColor=none;fillColor=none;align=center;verticalAlign=middle;whiteSpace=wrap;rounded=0;" vertex="1" parent="Mo43KSsvAckhel4JkecI-14">
          <mxGeometry x="130" y="210" width="60" height="30" as="geometry" />
        </mxCell>
        <mxCell id="Mo43KSsvAckhel4JkecI-50" value="email" style="rounded=0;whiteSpace=wrap;html=1;" vertex="1" parent="Mo43KSsvAckhel4JkecI-14">
          <mxGeometry x="20" y="20" width="270" height="40" as="geometry" />
        </mxCell>
        <mxCell id="Mo43KSsvAckhel4JkecI-51" value="password" style="rounded=0;whiteSpace=wrap;html=1;" vertex="1" parent="Mo43KSsvAckhel4JkecI-14">
          <mxGeometry x="20" y="70" width="270" height="40" as="geometry" />
        </mxCell>
        <mxCell id="Mo43KSsvAckhel4JkecI-52" value="Sign up" style="rounded=1;whiteSpace=wrap;html=1;" vertex="1" parent="Mo43KSsvAckhel4JkecI-14">
          <mxGeometry x="90" y="120" width="120" height="40" as="geometry" />
        </mxCell>
        <mxCell id="Mo43KSsvAckhel4JkecI-21" value="" style="group" vertex="1" connectable="0" parent="1">
          <mxGeometry x="150" y="880" width="360" height="240" as="geometry" />
        </mxCell>
        <mxCell id="Mo43KSsvAckhel4JkecI-22" value="" style="rounded=0;whiteSpace=wrap;html=1;" vertex="1" parent="Mo43KSsvAckhel4JkecI-21">
          <mxGeometry width="310" height="200" as="geometry" />
        </mxCell>
        <mxCell id="Mo43KSsvAckhel4JkecI-23" value="Reset password" style="text;html=1;strokeColor=none;fillColor=none;align=center;verticalAlign=middle;whiteSpace=wrap;rounded=0;" vertex="1" parent="Mo43KSsvAckhel4JkecI-21">
          <mxGeometry x="97.5" y="210" width="115" height="30" as="geometry" />
        </mxCell>
        <mxCell id="Mo43KSsvAckhel4JkecI-24" value="email" style="rounded=0;whiteSpace=wrap;html=1;" vertex="1" parent="Mo43KSsvAckhel4JkecI-21">
          <mxGeometry x="20" y="20" width="270" height="40" as="geometry" />
        </mxCell>
        <mxCell id="Mo43KSsvAckhel4JkecI-26" value="Reset" style="rounded=1;whiteSpace=wrap;html=1;" vertex="1" parent="Mo43KSsvAckhel4JkecI-21">
          <mxGeometry x="20" y="140" width="120" height="40" as="geometry" />
        </mxCell>
        <mxCell id="Mo43KSsvAckhel4JkecI-34" value="Cancel" style="rounded=1;whiteSpace=wrap;html=1;" vertex="1" parent="Mo43KSsvAckhel4JkecI-21">
          <mxGeometry x="170" y="140" width="120" height="40" as="geometry" />
        </mxCell>
        <mxCell id="Mo43KSsvAckhel4JkecI-28" style="edgeStyle=orthogonalEdgeStyle;rounded=0;orthogonalLoop=1;jettySize=auto;html=1;exitX=0.25;exitY=1;exitDx=0;exitDy=0;entryX=0.25;entryY=0;entryDx=0;entryDy=0;" edge="1" parent="1" source="Mo43KSsvAckhel4JkecI-9" target="Mo43KSsvAckhel4JkecI-22">
          <mxGeometry relative="1" as="geometry" />
        </mxCell>
        <mxCell id="Mo43KSsvAckhel4JkecI-30" value="" style="group" vertex="1" connectable="0" parent="1">
          <mxGeometry x="570" y="880" width="310" height="240" as="geometry" />
        </mxCell>
        <mxCell id="Mo43KSsvAckhel4JkecI-31" value="" style="rounded=0;whiteSpace=wrap;html=1;" vertex="1" parent="Mo43KSsvAckhel4JkecI-30">
          <mxGeometry width="310" height="200" as="geometry" />
        </mxCell>
        <mxCell id="Mo43KSsvAckhel4JkecI-32" value="New password" style="text;html=1;strokeColor=none;fillColor=none;align=center;verticalAlign=middle;whiteSpace=wrap;rounded=0;" vertex="1" parent="Mo43KSsvAckhel4JkecI-30">
          <mxGeometry x="130" y="210" width="60" height="30" as="geometry" />
        </mxCell>
        <mxCell id="Mo43KSsvAckhel4JkecI-43" value="enter new password" style="rounded=0;whiteSpace=wrap;html=1;" vertex="1" parent="Mo43KSsvAckhel4JkecI-30">
          <mxGeometry x="20" y="20" width="270" height="40" as="geometry" />
        </mxCell>
        <mxCell id="Mo43KSsvAckhel4JkecI-44" value="repeat new password" style="rounded=0;whiteSpace=wrap;html=1;" vertex="1" parent="Mo43KSsvAckhel4JkecI-30">
          <mxGeometry x="20" y="70" width="270" height="40" as="geometry" />
        </mxCell>
        <mxCell id="Mo43KSsvAckhel4JkecI-46" value="Submit" style="rounded=1;whiteSpace=wrap;html=1;" vertex="1" parent="Mo43KSsvAckhel4JkecI-30">
          <mxGeometry x="20" y="140" width="120" height="40" as="geometry" />
        </mxCell>
        <mxCell id="Mo43KSsvAckhel4JkecI-47" value="Cancel" style="rounded=1;whiteSpace=wrap;html=1;" vertex="1" parent="Mo43KSsvAckhel4JkecI-30">
          <mxGeometry x="170" y="140" width="120" height="40" as="geometry" />
        </mxCell>
        <mxCell id="Mo43KSsvAckhel4JkecI-35" style="edgeStyle=orthogonalEdgeStyle;rounded=0;orthogonalLoop=1;jettySize=auto;html=1;exitX=0.75;exitY=0;exitDx=0;exitDy=0;entryX=0.75;entryY=1;entryDx=0;entryDy=0;" edge="1" parent="1" source="Mo43KSsvAckhel4JkecI-22" target="Mo43KSsvAckhel4JkecI-9">
          <mxGeometry relative="1" as="geometry" />
        </mxCell>
        <mxCell id="Mo43KSsvAckhel4JkecI-36" style="edgeStyle=orthogonalEdgeStyle;rounded=0;orthogonalLoop=1;jettySize=auto;html=1;exitX=1;exitY=0.25;exitDx=0;exitDy=0;entryX=0;entryY=0.25;entryDx=0;entryDy=0;" edge="1" parent="1" source="Mo43KSsvAckhel4JkecI-22" target="Mo43KSsvAckhel4JkecI-31">
          <mxGeometry relative="1" as="geometry" />
        </mxCell>
        <mxCell id="Mo43KSsvAckhel4JkecI-48" style="edgeStyle=orthogonalEdgeStyle;rounded=0;orthogonalLoop=1;jettySize=auto;html=1;exitX=0.25;exitY=0;exitDx=0;exitDy=0;entryX=1;entryY=0.75;entryDx=0;entryDy=0;" edge="1" parent="1" source="Mo43KSsvAckhel4JkecI-31" target="Mo43KSsvAckhel4JkecI-9">
          <mxGeometry relative="1" as="geometry" />
        </mxCell>
        <mxCell id="Mo43KSsvAckhel4JkecI-53" style="edgeStyle=orthogonalEdgeStyle;rounded=0;orthogonalLoop=1;jettySize=auto;html=1;exitX=0;exitY=0.5;exitDx=0;exitDy=0;entryX=1;entryY=0.5;entryDx=0;entryDy=0;" edge="1" parent="1" source="Mo43KSsvAckhel4JkecI-10" target="Mo43KSsvAckhel4JkecI-9">
          <mxGeometry relative="1" as="geometry" />
        </mxCell>
        <mxCell id="Mo43KSsvAckhel4JkecI-62" style="edgeStyle=orthogonalEdgeStyle;rounded=0;orthogonalLoop=1;jettySize=auto;html=1;exitX=0;exitY=0.25;exitDx=0;exitDy=0;entryX=0.75;entryY=1;entryDx=0;entryDy=0;" edge="1" parent="1" source="Mo43KSsvAckhel4JkecI-9" target="Mo43KSsvAckhel4JkecI-64">
          <mxGeometry relative="1" as="geometry" />
        </mxCell>
        <mxCell id="Mo43KSsvAckhel4JkecI-66" value="" style="group" vertex="1" connectable="0" parent="1">
          <mxGeometry x="-140" y="310" width="310" height="240" as="geometry" />
        </mxCell>
        <mxCell id="Mo43KSsvAckhel4JkecI-64" value="" style="rounded=0;whiteSpace=wrap;html=1;" vertex="1" parent="Mo43KSsvAckhel4JkecI-66">
          <mxGeometry width="310" height="200" as="geometry" />
        </mxCell>
        <mxCell id="Mo43KSsvAckhel4JkecI-65" value="Logged in start page" style="text;html=1;strokeColor=none;fillColor=none;align=center;verticalAlign=middle;whiteSpace=wrap;rounded=0;" vertex="1" parent="Mo43KSsvAckhel4JkecI-66">
          <mxGeometry x="130" y="210" width="60" height="30" as="geometry" />
        </mxCell>
        <mxCell id="Mo43KSsvAckhel4JkecI-68" value="Log out" style="rounded=1;whiteSpace=wrap;html=1;" vertex="1" parent="Mo43KSsvAckhel4JkecI-66">
          <mxGeometry x="20" y="120" width="120" height="60" as="geometry" />
        </mxCell>
        <mxCell id="Mo43KSsvAckhel4JkecI-76" value="Reset password" style="rounded=1;whiteSpace=wrap;html=1;" vertex="1" parent="Mo43KSsvAckhel4JkecI-66">
          <mxGeometry x="170" y="120" width="120" height="60" as="geometry" />
        </mxCell>
        <mxCell id="Mo43KSsvAckhel4JkecI-71" style="edgeStyle=orthogonalEdgeStyle;rounded=0;orthogonalLoop=1;jettySize=auto;html=1;exitX=1;exitY=0.5;exitDx=0;exitDy=0;entryX=0;entryY=0.5;entryDx=0;entryDy=0;" edge="1" parent="1" source="Mo43KSsvAckhel4JkecI-64" target="Mo43KSsvAckhel4JkecI-3">
          <mxGeometry relative="1" as="geometry">
            <mxPoint x="-195" y="520" as="targetPoint" />
          </mxGeometry>
        </mxCell>
        <mxCell id="Mo43KSsvAckhel4JkecI-75" value="&quot;Log out&quot;" style="text;html=1;strokeColor=none;fillColor=none;align=center;verticalAlign=middle;whiteSpace=wrap;rounded=0;" vertex="1" parent="1">
          <mxGeometry x="270" y="415" width="60" height="30" as="geometry" />
        </mxCell>
        <mxCell id="Mo43KSsvAckhel4JkecI-78" style="edgeStyle=orthogonalEdgeStyle;rounded=0;orthogonalLoop=1;jettySize=auto;html=1;exitX=0.25;exitY=1;exitDx=0;exitDy=0;entryX=0;entryY=0.25;entryDx=0;entryDy=0;" edge="1" parent="1" source="Mo43KSsvAckhel4JkecI-64" target="Mo43KSsvAckhel4JkecI-22">
          <mxGeometry relative="1" as="geometry" />
        </mxCell>
        <mxCell id="Mo43KSsvAckhel4JkecI-79" value="&quot;Reset password&quot;" style="text;html=1;strokeColor=none;fillColor=none;align=center;verticalAlign=middle;whiteSpace=wrap;rounded=0;" vertex="1" parent="1">
          <mxGeometry x="-130" y="685" width="60" height="30" as="geometry" />
        </mxCell>
        <mxCell id="Mo43KSsvAckhel4JkecI-80" value="&quot;Log in&quot;" style="text;html=1;strokeColor=none;fillColor=none;align=center;verticalAlign=middle;whiteSpace=wrap;rounded=0;" vertex="1" parent="1">
          <mxGeometry x="40" y="580" width="60" height="30" as="geometry" />
        </mxCell>
        <mxCell id="Mo43KSsvAckhel4JkecI-83" value="After visiting link, sent to email on&quot;Reset&quot;" style="text;html=1;strokeColor=none;fillColor=none;align=center;verticalAlign=middle;whiteSpace=wrap;rounded=0;" vertex="1" parent="1">
          <mxGeometry x="470" y="928" width="100" height="65" as="geometry" />
        </mxCell>
        <mxCell id="Mo43KSsvAckhel4JkecI-84" value="&quot;Submit&quot; \ &quot;Cancel&quot;" style="text;html=1;strokeColor=none;fillColor=none;align=center;verticalAlign=middle;whiteSpace=wrap;rounded=0;" vertex="1" parent="1">
          <mxGeometry x="650" y="790" width="60" height="30" as="geometry" />
        </mxCell>
        <mxCell id="Mo43KSsvAckhel4JkecI-85" value="&quot;Sign up&quot;" style="text;html=1;strokeColor=none;fillColor=none;align=center;verticalAlign=middle;whiteSpace=wrap;rounded=0;" vertex="1" parent="1">
          <mxGeometry x="590" y="650" width="60" height="30" as="geometry" />
        </mxCell>
        <mxCell id="Mo43KSsvAckhel4JkecI-86" value="&quot;Sign up&quot;" style="text;html=1;strokeColor=none;fillColor=none;align=center;verticalAlign=middle;whiteSpace=wrap;rounded=0;" vertex="1" parent="1">
          <mxGeometry x="780" y="510" width="60" height="30" as="geometry" />
        </mxCell>
        <mxCell id="Mo43KSsvAckhel4JkecI-87" value="&quot;Log in&quot;" style="text;html=1;strokeColor=none;fillColor=none;align=center;verticalAlign=middle;whiteSpace=wrap;rounded=0;" vertex="1" parent="1">
          <mxGeometry x="370" y="520" width="60" height="30" as="geometry" />
        </mxCell>
      </root>
    </mxGraphModel>
  </diagram>
</mxfile>
